<?xml version="1.0" encoding="UTF-8"?>
<svg id="Layer_1" data-name="Layer 1" xmlns="http://www.w3.org/2000/svg" xmlns:xlink="http://www.w3.org/1999/xlink" viewBox="0 0 279.14 426.51">
  <defs>
    <style>
      .cls-1 {
        fill: none;
        stroke: #000;
        stroke-miterlimit: 10;
      }
    </style>
  </defs>
  <path class="cls-1" d="m62.18,32.07c-.14.9-.27,1.81-.43,2.71-.88,4.9-2.93,9.31-5.59,13.47-3.3,5.15-7.41,9.52-12.59,12.84-4.82,3.08-10.08,4.88-15.77,5.48-2.77.29-5.53.24-8.29-.03-2.61-.25-4.87-2.9-4.82-5.68.01-.44.06-.88.14-1.31.1-.49-.04-.74-.56-.84-3.39-.64-6.57-1.87-9.7-3.33-3.03-1.41-4.34-5.84-1.66-8.9.29-.34.72-.56,1.13-.86-.44-.27-.87-.54-1.31-.81-1.53-.97-2.41-2.33-2.2-4.18.21-1.87,1.16-3.33,2.99-3.95,2.75-.94,5.54-1.74,8.31-2.64,4.12-1.34,8.19-2.82,11.99-4.95,5.71-3.2,10.35-7.55,14-12.96.63-.93,1.25-1.87,1.86-2.81,1.24-1.92,1.63-3.98.98-6.21-.12-.46-.22-.89-.27-1.33-.19-1.59.55-2.74,1.78-3.64,1.03-.75,2.16-1.31,3.43-1.53.07,0,.13-.07.19-.11h1.81c.17.05.34.1.52.14,1.57.32,2.67,1.22,3.31,2.69.14.31.26.63.39.95,1.32,3.23,2.72,6.41,4.98,9.14,2.67,3.21,4.25,6.95,4.96,11.07.16.92.29,1.85.43,2.78-.01,1.59-.01,3.19-.01,4.8Z"/>
  <path class="cls-1" d="m134.18,32.07c-.14.9-.27,1.81-.43,2.71-.88,4.9-2.93,9.31-5.59,13.47-3.3,5.15-7.41,9.52-12.59,12.84-4.82,3.08-10.08,4.88-15.77,5.48-2.77.29-5.53.24-8.29-.03-2.61-.25-4.87-2.9-4.82-5.68.01-.44.06-.88.14-1.31.1-.49-.04-.74-.56-.84-3.39-.64-6.57-1.87-9.7-3.33-3.03-1.41-4.34-5.84-1.66-8.9.29-.34.72-.56,1.13-.86-.44-.27-.87-.54-1.31-.81-1.53-.97-2.41-2.33-2.2-4.18.21-1.87,1.16-3.33,2.99-3.95,2.75-.94,5.54-1.74,8.31-2.64,4.12-1.34,8.19-2.82,11.99-4.95,5.71-3.2,10.35-7.55,14-12.96.63-.93,1.25-1.87,1.86-2.81,1.24-1.92,1.63-3.98.98-6.21-.12-.42-.22-.86-.28-1.29-.19-1.59.55-2.74,1.78-3.64,1.03-.75,2.16-1.31,3.43-1.53.07,0,.13-.07.19-.11h1.81c.17.05.34.1.52.14,1.57.32,2.67,1.22,3.31,2.69.14.31.26.63.39.95,1.32,3.23,2.72,6.41,4.98,9.14,2.67,3.21,4.25,6.95,4.96,11.07.16.92.29,1.85.43,2.78v4.76Z"/>
  <path class="cls-1" d="m206.18,32.07c-.14.9-.27,1.81-.43,2.71-.88,4.9-2.93,9.31-5.59,13.47-3.3,5.15-7.41,9.52-12.59,12.84-4.82,3.08-10.08,4.88-15.77,5.48-2.77.29-5.53.24-8.29-.03-2.61-.25-4.87-2.9-4.82-5.68,0-.44.06-.88.14-1.31.1-.49-.04-.74-.56-.84-3.39-.64-6.57-1.87-9.7-3.33-3.03-1.41-4.34-5.84-1.66-8.9.29-.34.72-.56,1.13-.86-.44-.27-.87-.54-1.31-.81-1.53-.97-2.41-2.33-2.2-4.18.21-1.87,1.16-3.33,2.99-3.95,2.75-.94,5.54-1.74,8.31-2.64,4.12-1.34,8.19-2.82,11.99-4.95,5.71-3.2,10.35-7.55,14-12.96.63-.93,1.25-1.87,1.86-2.81,1.24-1.92,1.63-3.98.98-6.21-.12-.42-.22-.86-.28-1.29-.19-1.59.55-2.74,1.78-3.64,1.03-.75,2.16-1.31,3.43-1.53.07,0,.13-.07.19-.11h1.81c.17.05.34.1.52.14,1.57.32,2.67,1.22,3.31,2.69.14.31.26.63.39.95,1.32,3.23,2.72,6.41,4.98,9.14,2.67,3.21,4.25,6.95,4.96,11.07.16.92.29,1.85.43,2.78,0,1.55,0,3.15,0,4.76Z"/>
  <path class="cls-1" d="m278.18,32.07c-.14.9-.27,1.81-.43,2.71-.88,4.9-2.93,9.31-5.59,13.47-3.3,5.15-7.41,9.52-12.59,12.84-4.82,3.08-10.08,4.88-15.77,5.48-2.77.29-5.53.24-8.29-.03-2.61-.25-4.87-2.9-4.82-5.68,0-.44.06-.88.14-1.31.1-.49-.04-.74-.56-.84-3.39-.64-6.57-1.87-9.7-3.33-3.03-1.41-4.34-5.84-1.66-8.9.29-.34.72-.56,1.13-.86-.44-.27-.87-.54-1.31-.81-1.53-.97-2.41-2.33-2.2-4.18.21-1.87,1.16-3.33,2.99-3.95,2.75-.94,5.54-1.74,8.31-2.64,4.12-1.34,8.19-2.82,11.99-4.95,5.71-3.2,10.35-7.55,14-12.96.63-.93,1.25-1.87,1.86-2.81,1.24-1.92,1.63-3.98.98-6.21-.12-.42-.22-.86-.28-1.29-.19-1.59.55-2.74,1.78-3.64,1.03-.75,2.16-1.31,3.43-1.53.07,0,.13-.07.19-.11h1.81c.17.05.34.1.52.14,1.57.32,2.67,1.22,3.31,2.69.14.31.26.63.39.95,1.32,3.23,2.72,6.41,4.98,9.14,2.67,3.21,4.25,6.95,4.96,11.07.16.92.29,1.85.43,2.78,0,1.55,0,3.15,0,4.76Z"/>
  <image width="512" height="550" transform="translate(72.43 .41) scale(.12)" xlink:href="../../../var/folders/nk/pgtrvkmn1zvb58zwfxhs7h4w0000gn/T/TemporaryItems/NSIRD_Illustrator_E4FOHj/AI_28_0/Adobe/AISVG/0/licence-cut-2/licence-cut-21.png"/>
  <image width="512" height="550" transform="translate(.43 .41) scale(.12)" xlink:href="../../../var/folders/nk/pgtrvkmn1zvb58zwfxhs7h4w0000gn/T/TemporaryItems/NSIRD_Illustrator_E4FOHj/AI_28_0/Adobe/AISVG/0/licence-cut-2/licence-cut-22.png"/>
  <image width="512" height="550" transform="translate(216.43 .41) scale(.12)" xlink:href="../../../var/folders/nk/pgtrvkmn1zvb58zwfxhs7h4w0000gn/T/TemporaryItems/NSIRD_Illustrator_E4FOHj/AI_28_0/Adobe/AISVG/0/licence-cut-2/licence-cut-23.png"/>
  <image width="512" height="550" transform="translate(144.43 .41) scale(.12)" xlink:href="../../../var/folders/nk/pgtrvkmn1zvb58zwfxhs7h4w0000gn/T/TemporaryItems/NSIRD_Illustrator_E4FOHj/AI_28_0/Adobe/AISVG/0/licence-cut-2/licence-cut-24.png"/>
</svg>